<?xml version="1.0" encoding="utf-8"?>
<!-- Generator: Adobe Illustrator 22.1.0, SVG Export Plug-In . SVG Version: 6.00 Build 0)  -->
<svg version="1.1" id="Capa_1" xmlns="http://www.w3.org/2000/svg" xmlns:xlink="http://www.w3.org/1999/xlink" x="0px" y="0px"
	 viewBox="0 0 100 100" style="enable-background:new 0 0 100 100;" xml:space="preserve">
<style type="text/css">
	.st0{fill:#FFFFFF;}
</style>
<g>
	<path class="st0" d="M82.7,78.7l-4.6-8.7V48.7c0-13.2-8.9-24.4-21-27.9V10.1C57.1,5.6,53.5,2,49,2S41,5.6,41,10.1v10.7
		c-12.1,3.5-21,14.7-21,27.9v21.4l-4.6,8.7c-0.9,1.7-0.8,3.6,0.1,5.3c1,1.6,2.7,2.6,4.6,2.6h18.3c0.3,5.6,5,10.1,10.6,10.1
		s10.3-4.5,10.6-10.1H78c1.9,0,3.6-1,4.6-2.6C83.5,82.3,83.6,80.4,82.7,78.7z M45.2,10.1c0-2.1,1.7-3.8,3.8-3.8
		c2.1,0,3.8,1.7,3.8,3.8v9.8c-1.2-0.2-2.5-0.2-3.8-0.2c-1.3,0-2.6,0.1-3.8,0.2V10.1z M24.2,48.7C24.2,35,35.4,23.9,49,23.9
		S73.8,35,73.8,48.7v19.6H24.2V48.7z M49,92.4c-3.3,0-6.1-2.5-6.4-5.8h12.7C55.1,89.8,52.3,92.4,49,92.4z M78.9,81.8
		c-0.1,0.2-0.4,0.5-0.9,0.5H20.1c-0.5,0-0.8-0.4-0.9-0.5c-0.1-0.2-0.3-0.6,0-1.1l4.4-8.2h51.1l4.4,8.2C79.2,81.2,79,81.6,78.9,81.8z
		"/>
	<path class="st0" d="M49,29.6c-10.5,0-19.1,8.6-19.1,19.1c0,1.2,1,2.1,2.1,2.1s2.1-1,2.1-2.1c0-8.2,6.7-14.8,14.8-14.8
		c1.2,0,2.1-1,2.1-2.1C51.2,30.5,50.2,29.6,49,29.6z"/>
</g>
</svg>
